# MagicaVoxel @ Ephtracy

# group
o 

# material
mtllib candle1.mtl
usemtl palette

# normals
vn -1 0 0
vn 1 0 0
vn 0 0 1
vn 0 0 -1
vn 0 -1 0
vn 0 1 0

# texcoords
vt 0.708984 0.5
vt 0.740234 0.5
vt 0.771484 0.5
vt 0.802734 0.5

# verts
v -0.3 0 -0.2
v -0.3 0 -0.6
v -0.3 0.1 -0.2
v -0.3 0.1 -0.6
v -0.2 0 -0.1
v -0.2 0 -0.2
v -0.2 0 -0.6
v -0.2 0 -1.1
v -0.2 0.1 -0.1
v -0.2 0.1 -0.2
v -0.2 0.1 -0.3
v -0.2 0.1 -0.5
v -0.2 0.1 -0.6
v -0.2 0.1 -1.1
v -0.2 0.2 -0.3
v -0.2 0.2 -0.5
v -0.1 0.1 -0.5
v -0.1 0.1 -0.9
v -0.1 0.2 -0.3
v -0.1 0.2 -0.5
v -0.1 0.2 -0.8
v -0.1 0.2 -0.9
v -0.1 0.3 -0.3
v -0.1 0.3 -0.4
v -0.1 0.4 -0.4
v -0.1 0.4 -0.5
v -0.1 1 -0.5
v -0.1 1 -0.8
v 2.98023e-08 0.1 -0.1
v 2.98023e-08 0.1 -0.3
v 2.98023e-08 0.2 -0.1
v 2.98023e-08 0.2 -0.3
v 2.98023e-08 0.2 -0.8
v 2.98023e-08 0.2 -0.9
v 2.98023e-08 0.3 -0.3
v 2.98023e-08 0.3 -0.4
v 2.98023e-08 0.4 -0.3
v 2.98023e-08 0.4 -0.4
v 2.98023e-08 0.4 -0.5
v 2.98023e-08 1 -0.4
v 2.98023e-08 1 -0.5
v 2.98023e-08 1 -0.8
v 2.98023e-08 1 -0.9
v 0.1 0.4 -0.3
v 0.1 0.4 -0.4
v 0.1 0.5 -0.3
v 0.1 0.5 -0.4
v 0.1 1 -0.6
v 0.1 1 -0.7
v 0.1 1.1 -0.6
v 0.1 1.1 -0.7
v 0.1 1.2 -0.6
v 0.1 1.2 -0.7
v 0.1 1.3 -0.6
v 0.1 1.3 -0.7
v 0.2 0.1 -0.2
v 0.2 0.1 -0.4
v 0.2 0.1 -0.9
v 0.2 0.1 -1
v 0.2 0.2 -0.2
v 0.2 0.2 -0.4
v 0.2 0.4 -0.9
v 0.2 0.4 -1
v 0.3 0 -0.1
v 0.3 0 -0.2
v 0.3 0 -1.1
v 0.3 0 -1.2
v 0.3 0.1 -0.1
v 0.3 0.1 -0.2
v 0.3 0.1 -1.1
v 0.3 0.1 -1.2
v 0.1 0.1 -0.1
v 0.1 0.1 -0.4
v 0.1 0.2 -0.1
v 0.1 0.2 -0.3
v 0.1 0.3 -0.3
v 0.1 0.3 -0.4
v 0.2 0 -0.1
v 0.2 0 -0.2
v 0.2 0.1 -0.1
v 0.2 0.1 -0.2
v 0.2 0.3 -0.3
v 0.2 0.3 -0.4
v 0.2 0.5 -0.3
v 0.2 0.5 -0.4
v 0.2 1 -0.6
v 0.2 1 -0.7
v 0.2 1.1 -0.6
v 0.2 1.1 -0.7
v 0.2 1.2 -0.6
v 0.2 1.2 -0.7
v 0.2 1.3 -0.6
v 0.2 1.3 -0.7
v 0.3 0.1 -0.4
v 0.3 0.1 -0.5
v 0.3 0.2 -0.4
v 0.3 0.4 -0.8
v 0.3 0.4 -0.9
v 0.3 1 -0.4
v 0.3 1 -0.5
v 0.3 1 -0.8
v 0.3 1 -0.9
v 0.4 0.1 -0.2
v 0.4 0.1 -0.4
v 0.4 0.2 -0.2
v 0.4 0.2 -0.4
v 0.4 0.2 -0.5
v 0.4 0.2 -1
v 0.4 0.4 -0.8
v 0.4 0.4 -1
v 0.4 1 -0.5
v 0.4 1 -0.8
v 0.5 0 -0.6
v 0.5 0 -0.7
v 0.5 0.1 -0.5
v 0.5 0.1 -0.6
v 0.5 0.1 -0.7
v 0.5 0.1 -1
v 0.5 0.2 -0.5
v 0.5 0.2 -1
v 0.6 0 -0.1
v 0.6 0 -0.6
v 0.6 0.1 -0.1
v 0.6 0.1 -0.6
v 0.7 0 -0.7
v 0.7 0 -1.2
v 0.7 0.1 -0.7
v 0.7 0.1 -1.2
v -0.2 0 -0.1
v -0.2 0.1 -0.1
v 2.98023e-08 0.1 -0.1
v 2.98023e-08 0.2 -0.1
v 0.1 0.1 -0.1
v 0.1 0.2 -0.1
v 0.2 0 -0.1
v 0.2 0.1 -0.1
v 0.3 0 -0.1
v 0.3 0.1 -0.1
v 0.6 0 -0.1
v 0.6 0.1 -0.1
v -0.3 0 -0.2
v -0.3 0.1 -0.2
v -0.2 0 -0.2
v -0.2 0.1 -0.2
v 0.2 0 -0.2
v 0.2 0.1 -0.2
v 0.2 0.2 -0.2
v 0.3 0 -0.2
v 0.3 0.1 -0.2
v 0.4 0.1 -0.2
v 0.4 0.2 -0.2
v -0.2 0.1 -0.3
v -0.2 0.2 -0.3
v -0.1 0.2 -0.3
v -0.1 0.3 -0.3
v 2.98023e-08 0.1 -0.3
v 2.98023e-08 0.2 -0.3
v 2.98023e-08 0.3 -0.3
v 2.98023e-08 0.4 -0.3
v 0.1 0.2 -0.3
v 0.1 0.3 -0.3
v 0.1 0.4 -0.3
v 0.1 0.5 -0.3
v 0.2 0.3 -0.3
v 0.2 0.5 -0.3
v -0.1 0.3 -0.4
v -0.1 0.4 -0.4
v 2.98023e-08 0.3 -0.4
v 2.98023e-08 0.4 -0.4
v 2.98023e-08 1 -0.4
v 0.1 0.1 -0.4
v 0.1 0.3 -0.4
v 0.1 0.4 -0.4
v 0.1 0.5 -0.4
v 0.2 0.1 -0.4
v 0.2 0.2 -0.4
v 0.2 0.3 -0.4
v 0.2 0.5 -0.4
v 0.3 0.2 -0.4
v 0.3 1 -0.4
v -0.1 0.4 -0.5
v -0.1 1 -0.5
v 2.98023e-08 0.4 -0.5
v 2.98023e-08 1 -0.5
v 0.3 0.1 -0.5
v 0.3 1 -0.5
v 0.4 0.2 -0.5
v 0.4 1 -0.5
v 0.5 0.1 -0.5
v 0.5 0.2 -0.5
v 0.1 1 -0.6
v 0.1 1.1 -0.6
v 0.1 1.2 -0.6
v 0.1 1.3 -0.6
v 0.2 1 -0.6
v 0.2 1.1 -0.6
v 0.2 1.2 -0.6
v 0.2 1.3 -0.6
v 0.5 0 -0.7
v 0.5 0.1 -0.7
v 0.7 0 -0.7
v 0.7 0.1 -0.7
v 0.3 0.1 -0.4
v 0.3 0.2 -0.4
v 0.4 0.1 -0.4
v 0.4 0.2 -0.4
v -0.2 0.1 -0.5
v -0.2 0.2 -0.5
v -0.1 0.1 -0.5
v -0.1 0.2 -0.5
v -0.3 0 -0.6
v -0.3 0.1 -0.6
v -0.2 0 -0.6
v -0.2 0.1 -0.6
v 0.5 0 -0.6
v 0.5 0.1 -0.6
v 0.6 0 -0.6
v 0.6 0.1 -0.6
v 0.1 1 -0.7
v 0.1 1.1 -0.7
v 0.1 1.2 -0.7
v 0.1 1.3 -0.7
v 0.2 1 -0.7
v 0.2 1.1 -0.7
v 0.2 1.2 -0.7
v 0.2 1.3 -0.7
v -0.1 0.2 -0.8
v -0.1 1 -0.8
v 2.98023e-08 0.2 -0.8
v 2.98023e-08 1 -0.8
v 0.3 0.4 -0.8
v 0.3 1 -0.8
v 0.4 0.4 -0.8
v 0.4 1 -0.8
v -0.1 0.1 -0.9
v -0.1 0.2 -0.9
v 2.98023e-08 0.2 -0.9
v 2.98023e-08 1 -0.9
v 0.2 0.1 -0.9
v 0.2 0.4 -0.9
v 0.3 0.4 -0.9
v 0.3 1 -0.9
v 0.2 0.1 -1
v 0.2 0.4 -1
v 0.4 0.2 -1
v 0.4 0.4 -1
v 0.5 0.1 -1
v 0.5 0.2 -1
v -0.2 0 -1.1
v -0.2 0.1 -1.1
v 0.3 0 -1.1
v 0.3 0.1 -1.1
v 0.3 0 -1.2
v 0.3 0.1 -1.2
v 0.7 0 -1.2
v 0.7 0.1 -1.2
v -0.2 0 -0.1
v 0.2 0 -0.1
v 0.3 0 -0.1
v 0.6 0 -0.1
v -0.3 0 -0.2
v -0.2 0 -0.2
v 0.2 0 -0.2
v 0.3 0 -0.2
v -0.3 0 -0.6
v -0.2 0 -0.6
v 0.5 0 -0.6
v 0.6 0 -0.6
v 0.5 0 -0.7
v 0.7 0 -0.7
v -0.2 0 -1.1
v 0.3 0 -1.1
v 0.3 0 -1.2
v 0.7 0 -1.2
v 0.1 0.3 -0.3
v 0.2 0.3 -0.3
v 0.1 0.3 -0.4
v 0.2 0.3 -0.4
v -0.2 0.1 -0.1
v 2.98023e-08 0.1 -0.1
v 0.1 0.1 -0.1
v 0.2 0.1 -0.1
v 0.3 0.1 -0.1
v 0.6 0.1 -0.1
v -0.3 0.1 -0.2
v -0.2 0.1 -0.2
v 0.2 0.1 -0.2
v 0.3 0.1 -0.2
v 0.4 0.1 -0.2
v -0.2 0.1 -0.3
v 2.98023e-08 0.1 -0.3
v 0.1 0.1 -0.4
v 0.2 0.1 -0.4
v 0.3 0.1 -0.4
v 0.4 0.1 -0.4
v -0.2 0.1 -0.5
v -0.1 0.1 -0.5
v 0.3 0.1 -0.5
v 0.5 0.1 -0.5
v -0.3 0.1 -0.6
v -0.2 0.1 -0.6
v 0.5 0.1 -0.6
v 0.6 0.1 -0.6
v 0.5 0.1 -0.7
v 0.7 0.1 -0.7
v -0.1 0.1 -0.9
v 0.2 0.1 -0.9
v 0.2 0.1 -1
v 0.5 0.1 -1
v -0.2 0.1 -1.1
v 0.3 0.1 -1.1
v 0.3 0.1 -1.2
v 0.7 0.1 -1.2
v 2.98023e-08 0.2 -0.1
v 0.1 0.2 -0.1
v 0.2 0.2 -0.2
v 0.4 0.2 -0.2
v -0.2 0.2 -0.3
v -0.1 0.2 -0.3
v 2.98023e-08 0.2 -0.3
v 0.1 0.2 -0.3
v 0.2 0.2 -0.4
v 0.3 0.2 -0.4
v 0.4 0.2 -0.4
v -0.2 0.2 -0.5
v -0.1 0.2 -0.5
v 0.4 0.2 -0.5
v 0.5 0.2 -0.5
v -0.1 0.2 -0.8
v 2.98023e-08 0.2 -0.8
v -0.1 0.2 -0.9
v 2.98023e-08 0.2 -0.9
v 0.4 0.2 -1
v 0.5 0.2 -1
v -0.1 0.3 -0.3
v 2.98023e-08 0.3 -0.3
v -0.1 0.3 -0.4
v 2.98023e-08 0.3 -0.4
v 2.98023e-08 0.4 -0.3
v 0.1 0.4 -0.3
v -0.1 0.4 -0.4
v 2.98023e-08 0.4 -0.4
v 0.1 0.4 -0.4
v -0.1 0.4 -0.5
v 2.98023e-08 0.4 -0.5
v 0.3 0.4 -0.8
v 0.4 0.4 -0.8
v 0.2 0.4 -0.9
v 0.3 0.4 -0.9
v 0.2 0.4 -1
v 0.4 0.4 -1
v 0.1 0.5 -0.3
v 0.2 0.5 -0.3
v 0.1 0.5 -0.4
v 0.2 0.5 -0.4
v 2.98023e-08 1 -0.4
v 0.3 1 -0.4
v -0.1 1 -0.5
v 2.98023e-08 1 -0.5
v 0.3 1 -0.5
v 0.4 1 -0.5
v 0.1 1 -0.6
v 0.2 1 -0.6
v 0.1 1 -0.7
v 0.2 1 -0.7
v -0.1 1 -0.8
v 2.98023e-08 1 -0.8
v 0.3 1 -0.8
v 0.4 1 -0.8
v 2.98023e-08 1 -0.9
v 0.3 1 -0.9
v 0.1 1.3 -0.6
v 0.2 1.3 -0.6
v 0.1 1.3 -0.7
v 0.2 1.3 -0.7

# faces
f 3/4/1 2/4/1 1/4/1
f 4/4/1 2/4/1 3/4/1
f 9/4/1 6/4/1 5/4/1
f 10/4/1 6/4/1 9/4/1
f 13/4/1 8/4/1 7/4/1
f 14/4/1 8/4/1 13/4/1
f 15/4/1 12/4/1 11/4/1
f 16/4/1 12/4/1 15/4/1
f 20/4/1 18/4/1 17/4/1
f 21/4/1 18/4/1 20/4/1
f 22/4/1 18/4/1 21/4/1
f 23/4/1 20/4/1 19/4/1
f 23/4/1 21/4/1 20/4/1
f 24/4/1 21/4/1 23/4/1
f 25/4/1 21/4/1 24/4/1
f 26/4/1 21/4/1 25/4/1
f 27/4/1 21/4/1 26/4/1
f 28/4/1 21/4/1 27/4/1
f 31/4/1 30/4/1 29/4/1
f 32/4/1 30/4/1 31/4/1
f 37/4/1 36/4/1 35/4/1
f 38/4/1 36/4/1 37/4/1
f 40/4/1 39/4/1 38/4/1
f 41/4/1 39/4/1 40/4/1
f 42/4/1 34/4/1 33/4/1
f 43/4/1 34/4/1 42/4/1
f 46/4/1 45/4/1 44/4/1
f 47/4/1 45/4/1 46/4/1
f 50/3/1 49/3/1 48/3/1
f 51/3/1 49/3/1 50/3/1
f 52/2/1 51/2/1 50/2/1
f 53/2/1 51/2/1 52/2/1
f 54/1/1 53/1/1 52/1/1
f 55/1/1 53/1/1 54/1/1
f 60/4/1 57/4/1 56/4/1
f 61/4/1 57/4/1 60/4/1
f 62/4/1 59/4/1 58/4/1
f 63/4/1 59/4/1 62/4/1
f 68/4/1 65/4/1 64/4/1
f 69/4/1 65/4/1 68/4/1
f 70/4/1 67/4/1 66/4/1
f 71/4/1 67/4/1 70/4/1
f 72/4/2 73/4/2 74/4/2
f 74/4/2 73/4/2 75/4/2
f 75/4/2 73/4/2 76/4/2
f 76/4/2 73/4/2 77/4/2
f 78/4/2 79/4/2 80/4/2
f 80/4/2 79/4/2 81/4/2
f 82/4/2 83/4/2 84/4/2
f 84/4/2 83/4/2 85/4/2
f 86/3/2 87/3/2 88/3/2
f 88/3/2 87/3/2 89/3/2
f 88/2/2 89/2/2 90/2/2
f 90/2/2 89/2/2 91/2/2
f 90/1/2 91/1/2 92/1/2
f 92/1/2 91/1/2 93/1/2
f 94/4/2 95/4/2 96/4/2
f 96/4/2 95/4/2 99/4/2
f 99/4/2 95/4/2 100/4/2
f 97/4/2 98/4/2 101/4/2
f 101/4/2 98/4/2 102/4/2
f 103/4/2 104/4/2 105/4/2
f 105/4/2 104/4/2 106/4/2
f 107/4/2 108/4/2 109/4/2
f 109/4/2 108/4/2 110/4/2
f 107/4/2 109/4/2 111/4/2
f 111/4/2 109/4/2 112/4/2
f 113/4/2 114/4/2 116/4/2
f 116/4/2 114/4/2 117/4/2
f 115/4/2 116/4/2 119/4/2
f 117/4/2 118/4/2 119/4/2
f 116/4/2 117/4/2 119/4/2
f 119/4/2 118/4/2 120/4/2
f 121/4/2 122/4/2 123/4/2
f 123/4/2 122/4/2 124/4/2
f 125/4/2 126/4/2 127/4/2
f 127/4/2 126/4/2 128/4/2
f 131/4/3 130/4/3 129/4/3
f 133/4/3 131/4/3 129/4/3
f 133/4/3 132/4/3 131/4/3
f 134/4/3 132/4/3 133/4/3
f 135/4/3 133/4/3 129/4/3
f 136/4/3 133/4/3 135/4/3
f 139/4/3 138/4/3 137/4/3
f 140/4/3 138/4/3 139/4/3
f 143/4/3 142/4/3 141/4/3
f 144/4/3 142/4/3 143/4/3
f 148/4/3 146/4/3 145/4/3
f 148/4/3 147/4/3 146/4/3
f 149/4/3 147/4/3 148/4/3
f 150/4/3 147/4/3 149/4/3
f 151/4/3 147/4/3 150/4/3
f 154/4/3 153/4/3 152/4/3
f 156/4/3 154/4/3 152/4/3
f 156/4/3 155/4/3 154/4/3
f 157/4/3 155/4/3 156/4/3
f 158/4/3 155/4/3 157/4/3
f 160/4/3 159/4/3 158/4/3
f 160/4/3 158/4/3 157/4/3
f 161/4/3 159/4/3 160/4/3
f 162/4/3 159/4/3 161/4/3
f 164/4/3 163/4/3 162/4/3
f 164/4/3 162/4/3 161/4/3
f 165/4/3 163/4/3 164/4/3
f 168/4/3 167/4/3 166/4/3
f 169/4/3 167/4/3 168/4/3
f 173/4/3 170/4/3 169/4/3
f 174/4/3 170/4/3 173/4/3
f 175/4/3 172/4/3 171/4/3
f 176/4/3 172/4/3 175/4/3
f 177/4/3 172/4/3 176/4/3
f 178/4/3 170/4/3 174/4/3
f 179/4/3 177/4/3 176/4/3
f 179/4/3 178/4/3 177/4/3
f 180/4/3 170/4/3 178/4/3
f 180/4/3 178/4/3 179/4/3
f 183/4/3 182/4/3 181/4/3
f 184/4/3 182/4/3 183/4/3
f 187/4/3 186/4/3 185/4/3
f 188/4/3 186/4/3 187/4/3
f 189/4/3 187/4/3 185/4/3
f 190/4/3 187/4/3 189/4/3
f 195/3/3 192/3/3 191/3/3
f 196/2/3 193/2/3 192/2/3
f 196/3/3 192/3/3 195/3/3
f 197/1/3 194/1/3 193/1/3
f 197/2/3 193/2/3 196/2/3
f 198/1/3 194/1/3 197/1/3
f 201/4/3 200/4/3 199/4/3
f 202/4/3 200/4/3 201/4/3
f 203/4/4 204/4/4 205/4/4
f 205/4/4 204/4/4 206/4/4
f 207/4/4 208/4/4 209/4/4
f 209/4/4 208/4/4 210/4/4
f 211/4/4 212/4/4 213/4/4
f 213/4/4 212/4/4 214/4/4
f 215/4/4 216/4/4 217/4/4
f 217/4/4 216/4/4 218/4/4
f 219/3/4 220/3/4 223/3/4
f 220/2/4 221/2/4 224/2/4
f 223/3/4 220/3/4 224/3/4
f 221/1/4 222/1/4 225/1/4
f 224/2/4 221/2/4 225/2/4
f 225/1/4 222/1/4 226/1/4
f 227/4/4 228/4/4 229/4/4
f 229/4/4 228/4/4 230/4/4
f 231/4/4 232/4/4 233/4/4
f 233/4/4 232/4/4 234/4/4
f 235/4/4 236/4/4 237/4/4
f 235/4/4 237/4/4 239/4/4
f 237/4/4 238/4/4 239/4/4
f 239/4/4 238/4/4 240/4/4
f 240/4/4 238/4/4 241/4/4
f 241/4/4 238/4/4 242/4/4
f 243/4/4 244/4/4 245/4/4
f 245/4/4 244/4/4 246/4/4
f 243/4/4 245/4/4 247/4/4
f 247/4/4 245/4/4 248/4/4
f 249/4/4 250/4/4 251/4/4
f 251/4/4 250/4/4 252/4/4
f 253/4/4 254/4/4 255/4/4
f 255/4/4 254/4/4 256/4/4
f 262/4/5 258/4/5 257/4/5
f 263/4/5 258/4/5 262/4/5
f 264/4/5 260/4/5 259/4/5
f 265/4/5 263/4/5 262/4/5
f 265/4/5 264/4/5 263/4/5
f 265/4/5 262/4/5 261/4/5
f 266/4/5 264/4/5 265/4/5
f 267/4/5 260/4/5 264/4/5
f 267/4/5 264/4/5 266/4/5
f 268/4/5 260/4/5 267/4/5
f 269/4/5 267/4/5 266/4/5
f 271/4/5 269/4/5 266/4/5
f 271/4/5 270/4/5 269/4/5
f 272/4/5 270/4/5 271/4/5
f 273/4/5 270/4/5 272/4/5
f 274/4/5 270/4/5 273/4/5
f 277/4/5 276/4/5 275/4/5
f 278/4/5 276/4/5 277/4/5
f 279/4/6 280/4/6 286/4/6
f 281/4/6 282/4/6 287/4/6
f 283/4/6 284/4/6 288/4/6
f 288/4/6 284/4/6 289/4/6
f 285/4/6 286/4/6 290/4/6
f 286/4/6 280/4/6 290/4/6
f 290/4/6 280/4/6 291/4/6
f 281/4/6 287/4/6 292/4/6
f 292/4/6 287/4/6 293/4/6
f 289/4/6 284/4/6 295/4/6
f 285/4/6 290/4/6 296/4/6
f 294/4/6 295/4/6 298/4/6
f 295/4/6 284/4/6 299/4/6
f 298/4/6 295/4/6 299/4/6
f 296/4/6 297/4/6 300/4/6
f 285/4/6 296/4/6 300/4/6
f 300/4/6 297/4/6 301/4/6
f 299/4/6 284/4/6 302/4/6
f 302/4/6 284/4/6 303/4/6
f 301/4/6 297/4/6 306/4/6
f 306/4/6 307/4/6 308/4/6
f 304/4/6 305/4/6 309/4/6
f 306/4/6 308/4/6 310/4/6
f 308/4/6 309/4/6 310/4/6
f 301/4/6 306/4/6 310/4/6
f 310/4/6 309/4/6 311/4/6
f 311/4/6 309/4/6 312/4/6
f 309/4/6 305/4/6 313/4/6
f 312/4/6 309/4/6 313/4/6
f 314/4/6 315/4/6 320/4/6
f 320/4/6 315/4/6 321/4/6
f 316/4/6 317/4/6 322/4/6
f 322/4/6 317/4/6 323/4/6
f 323/4/6 317/4/6 324/4/6
f 318/4/6 319/4/6 325/4/6
f 325/4/6 319/4/6 326/4/6
f 329/4/6 330/4/6 331/4/6
f 331/4/6 330/4/6 332/4/6
f 327/4/6 328/4/6 333/4/6
f 333/4/6 328/4/6 334/4/6
f 335/4/6 336/4/6 337/4/6
f 337/4/6 336/4/6 338/4/6
f 339/4/6 340/4/6 342/4/6
f 342/4/6 340/4/6 343/4/6
f 341/4/6 342/4/6 344/4/6
f 344/4/6 342/4/6 345/4/6
f 346/4/6 347/4/6 349/4/6
f 348/4/6 349/4/6 350/4/6
f 349/4/6 347/4/6 351/4/6
f 350/4/6 349/4/6 351/4/6
f 352/4/6 353/4/6 354/4/6
f 354/4/6 353/4/6 355/4/6
f 356/4/6 357/4/6 359/4/6
f 359/4/6 357/4/6 360/4/6
f 358/4/6 359/4/6 362/4/6
f 360/4/6 361/4/6 362/4/6
f 359/4/6 360/4/6 362/4/6
f 362/4/6 361/4/6 363/4/6
f 358/4/6 362/4/6 364/4/6
f 363/4/6 361/4/6 365/4/6
f 358/4/6 364/4/6 366/4/6
f 364/4/6 365/4/6 366/4/6
f 366/4/6 365/4/6 367/4/6
f 365/4/6 361/4/6 368/4/6
f 367/4/6 365/4/6 368/4/6
f 368/4/6 361/4/6 369/4/6
f 367/4/6 368/4/6 370/4/6
f 370/4/6 368/4/6 371/4/6
f 372/1/6 373/1/6 374/1/6
f 374/1/6 373/1/6 375/1/6
