# MagicaVoxel @ Ephtracy

# group
o 

# material
mtllib Ice Stairs.mtl
usemtl palette

# normals
vn -1 0 0
vn 1 0 0
vn 0 0 1
vn 0 0 -1
vn 0 -1 0
vn 0 1 0

# texcoords
vt 0.00195313 0.5
vt 0.564453 0.5
vt 0.568359 0.5
vt 0.958984 0.5

# verts
v -2 0 2
v -2 0 -0.8
v -2 0.5 2
v -2 0.5 1.9
v -2 2.4 -0.6
v -2 2.4 -0.8
v -2 2.6 2
v -2 2.6 1.9
v -2 2.7 2
v -2 2.7 1.8
v -2 2.8 -0.1
v -2 2.8 -0.6
v -2 3.2 1.8
v -2 3.2 1.3
v -2 3.2 0.9
v -2 3.2 -0.1
v -2 3.6 1.3
v -2 3.6 0.9
v -2 4 2
v -2 4 -0.8
v -1.7 0 -0.8
v -1.7 0 -1.3
v -1.7 0.5 2
v -1.7 0.5 1.9
v -1.7 2.4 -0.8
v -1.7 2.4 -1.3
v -1.7 2.6 2
v -1.7 2.6 1.9
v -1.7 4 -0.8
v -1.7 4 -1.3
v -1.2 0 -1.3
v -1.2 0 -2
v -1.2 2.4 -1.3
v -1.2 2.4 -1.4
v -1.2 3.1 -1.4
v -1.2 3.1 -2
v -1.2 4 -1.3
v -1.2 4 -2
v 1.5 0 2
v 1.5 0 1.8
v 1.5 3.5 2
v 1.5 3.5 1.8
v 1.5 3.9 2
v 1.5 3.9 1.8
v -0.6 0 2
v -0.6 0 1.8
v -0.6 2 2
v -0.6 2 1.8
v -0.6 3.9 2
v -0.6 3.9 1.8
v 0.7 0 -1.8
v 0.7 0 -2
v 0.7 2.7 -1.8
v 0.7 2.7 -1.9
v 0.7 2.9 -1.9
v 0.7 2.9 -2
v 0.7 3 -1.8
v 0.7 3 -1.9
v 0.7 4 -1.8
v 0.7 4 -2
v 1.9 0 0.5
v 1.9 0 -1.8
v 1.9 2.7 0.5
v 1.9 2.7 -0.1
v 1.9 3 -0.1
v 1.9 3 -1.7
v 1.9 3.3 -1.7
v 1.9 3.3 -1.8
v 1.9 4 0.5
v 1.9 4 -1.8
v 2 0 2
v 2 0 0.5
v 2 2.7 1.1
v 2 2.7 0.5
v 2 3.5 2
v 2 3.5 1.1
v 2 4 2
v 2 4 0.5
v -2 0 2
v -2 0.5 2
v -2 2.6 2
v -2 2.7 2
v -2 4 2
v -1.7 0.5 2
v -1.7 2.6 2
v -1.5 2 2
v -1.5 2.7 2
v -0.6 0 2
v -0.6 2 2
v -0.6 3.9 2
v 1.5 0 2
v 1.5 3.5 2
v 1.5 3.9 2
v 1.6 3.2 2
v 1.6 3.5 2
v 1.8 3.2 2
v 1.8 3.5 2
v 2 0 2
v 2 3.5 2
v 2 4 2
v -2 0.5 1.9
v -2 2.6 1.9
v -1.7 0.5 1.9
v -1.7 2.6 1.9
v -0.6 0 1.8
v -0.6 2 1.8
v -0.6 3.9 1.8
v -0.0999999 2 1.8
v -0.0999999 2.7 1.8
v 0.7 2.7 1.8
v 0.7 3.5 1.8
v 1.5 0 1.8
v 1.5 3.5 1.8
v 1.5 3.9 1.8
v 1.9 0 0.5
v 1.9 2.7 0.5
v 1.9 4 0.5
v 2 0 0.5
v 2 2.7 0.5
v 2 4 0.5
v -2 0 -0.8
v -2 2.4 -0.8
v -2 4 -0.8
v -1.7 0 -0.8
v -1.7 2.4 -0.8
v -1.7 4 -0.8
v -1.7 0 -1.3
v -1.7 2.4 -1.3
v -1.7 4 -1.3
v -1.2 0 -1.3
v -1.2 2.4 -1.3
v -1.2 4 -1.3
v 0.7 0 -1.8
v 0.7 2.7 -1.8
v 0.7 3 -1.8
v 0.7 4 -1.8
v 1.7 2.7 -1.8
v 1.7 3 -1.8
v 1.8 3 -1.8
v 1.8 3.3 -1.8
v 1.9 0 -1.8
v 1.9 3.3 -1.8
v 1.9 4 -1.8
v -1.2 0 -2
v -1.2 3.1 -2
v -1.2 4 -2
v 2.38419e-07 2.7 -2
v 2.38419e-07 3.1 -2
v 0.4 2.7 -2
v 0.4 2.9 -2
v 0.7 0 -2
v 0.7 2.9 -2
v 0.7 4 -2
v -2 0 2
v -0.6 0 2
v 1.5 0 2
v 2 0 2
v -0.6 0 1.8
v 1.5 0 1.8
v 1.9 0 0.5
v 2 0 0.5
v -2 0 -0.8
v -1.7 0 -0.8
v -1.7 0 -1.3
v -1.2 0 -1.3
v 0.7 0 -1.8
v 1.9 0 -1.8
v -1.2 0 -2
v 0.7 0 -2
v -2 2.6 2
v -1.7 2.6 2
v -2 2.6 1.9
v -1.7 2.6 1.9
v -0.6 3.9 2
v 1.5 3.9 2
v -0.6 3.9 1.8
v 1.5 3.9 1.8
v -2 0.5 2
v -1.7 0.5 2
v -2 0.5 1.9
v -1.7 0.5 1.9
v -2 4 2
v 2 4 2
v -1.3 4 1.3
v 0.9 4 1.3
v 0.9 4 0.6
v 1.3 4 0.6
v 1.9 4 0.5
v 2 4 0.5
v -1.3 4 -0.3
v -0.7 4 -0.3
v -2 4 -0.8
v -1.7 4 -0.8
v -1.7 4 -1.3
v -1.2 4 -1.3
v -0.7 4 -1.4
v 1.3 4 -1.4
v 0.7 4 -1.8
v 1.9 4 -1.8
v -1.2 4 -2
v 0.7 4 -2

# faces
f 3/3/1 2/3/1 1/3/1
f 4/3/1 2/3/1 3/3/1
f 5/3/1 2/3/1 4/3/1
f 6/3/1 2/3/1 5/3/1
f 8/3/1 5/3/1 4/3/1
f 9/3/1 8/3/1 7/3/1
f 10/3/1 5/3/1 8/3/1
f 10/3/1 8/3/1 9/3/1
f 11/3/1 5/3/1 10/3/1
f 12/1/1 6/1/1 5/1/1
f 12/3/1 5/3/1 11/3/1
f 13/3/1 11/3/1 10/3/1
f 13/1/1 10/1/1 9/1/1
f 14/3/1 11/3/1 13/3/1
f 15/3/1 11/3/1 14/3/1
f 16/1/1 12/1/1 11/1/1
f 16/3/1 11/3/1 15/3/1
f 17/3/1 15/3/1 14/3/1
f 17/1/1 14/1/1 13/1/1
f 18/1/1 16/1/1 15/1/1
f 18/3/1 15/3/1 17/3/1
f 19/1/1 13/1/1 9/1/1
f 19/1/1 17/1/1 13/1/1
f 19/1/1 18/1/1 17/1/1
f 20/1/1 6/1/1 12/1/1
f 20/1/1 18/1/1 19/1/1
f 20/1/1 12/1/1 16/1/1
f 20/1/1 16/1/1 18/1/1
f 25/3/1 22/3/1 21/3/1
f 26/3/1 22/3/1 25/3/1
f 27/3/1 24/3/1 23/3/1
f 28/3/1 24/3/1 27/3/1
f 29/1/1 26/1/1 25/1/1
f 30/1/1 26/1/1 29/1/1
f 33/3/1 32/3/1 31/3/1
f 34/3/1 32/3/1 33/3/1
f 35/1/1 34/1/1 33/1/1
f 35/3/1 32/3/1 34/3/1
f 36/3/1 32/3/1 35/3/1
f 37/1/1 35/1/1 33/1/1
f 37/1/1 36/1/1 35/1/1
f 38/1/1 36/1/1 37/1/1
f 41/3/1 40/3/1 39/3/1
f 42/3/1 40/3/1 41/3/1
f 43/1/1 42/1/1 41/1/1
f 44/1/1 42/1/1 43/1/1
f 45/3/2 46/3/2 47/3/2
f 47/3/2 46/3/2 48/3/2
f 47/1/2 48/1/2 49/1/2
f 49/1/2 48/1/2 50/1/2
f 51/3/2 52/3/2 53/3/2
f 53/3/2 52/3/2 54/3/2
f 53/4/2 54/4/2 55/4/2
f 54/3/2 52/3/2 55/3/2
f 55/3/2 52/3/2 56/3/2
f 53/4/2 55/4/2 57/4/2
f 55/1/2 56/1/2 58/1/2
f 57/4/2 55/4/2 58/4/2
f 57/1/2 58/1/2 59/1/2
f 58/1/2 56/1/2 60/1/2
f 59/1/2 58/1/2 60/1/2
f 61/3/2 62/3/2 63/3/2
f 63/3/2 62/3/2 64/3/2
f 63/1/2 64/1/2 65/1/2
f 64/3/2 62/3/2 65/3/2
f 65/3/2 62/3/2 66/3/2
f 65/1/2 66/1/2 67/1/2
f 66/3/2 62/3/2 67/3/2
f 67/3/2 62/3/2 68/3/2
f 63/1/2 65/1/2 69/1/2
f 65/1/2 67/1/2 69/1/2
f 67/1/2 68/1/2 69/1/2
f 69/1/2 68/1/2 70/1/2
f 71/3/2 72/3/2 73/3/2
f 73/3/2 72/3/2 74/3/2
f 71/3/2 73/3/2 75/3/2
f 73/1/2 74/1/2 76/1/2
f 75/3/2 73/3/2 76/3/2
f 75/1/2 76/1/2 77/1/2
f 76/1/2 74/1/2 78/1/2
f 77/1/2 76/1/2 78/1/2
f 84/3/3 80/3/3 79/3/3
f 85/3/3 82/3/3 81/3/3
f 86/3/3 85/3/3 84/3/3
f 87/1/3 83/1/3 82/1/3
f 87/3/3 85/3/3 86/3/3
f 87/3/3 82/3/3 85/3/3
f 88/3/3 86/3/3 84/3/3
f 88/3/3 84/3/3 79/3/3
f 89/1/3 87/1/3 86/1/3
f 89/3/3 86/3/3 88/3/3
f 90/1/3 83/1/3 87/1/3
f 90/1/3 87/1/3 89/1/3
f 93/1/3 83/1/3 90/1/3
f 94/3/3 92/3/3 91/3/3
f 95/1/3 93/1/3 92/1/3
f 95/3/3 92/3/3 94/3/3
f 96/3/3 94/3/3 91/3/3
f 96/1/3 95/1/3 94/1/3
f 97/1/3 93/1/3 95/1/3
f 97/1/3 95/1/3 96/1/3
f 98/3/3 96/3/3 91/3/3
f 98/3/3 97/3/3 96/3/3
f 99/1/3 93/1/3 97/1/3
f 99/3/3 97/3/3 98/3/3
f 100/1/3 83/1/3 93/1/3
f 100/1/3 93/1/3 99/1/3
f 103/3/3 102/3/3 101/3/3
f 104/3/3 102/3/3 103/3/3
f 108/3/3 106/3/3 105/3/3
f 108/1/3 107/1/3 106/1/3
f 109/1/3 107/1/3 108/1/3
f 110/3/3 109/3/3 108/3/3
f 110/1/3 107/1/3 109/1/3
f 111/1/3 107/1/3 110/1/3
f 112/3/3 108/3/3 105/3/3
f 112/3/3 110/3/3 108/3/3
f 112/3/3 111/3/3 110/3/3
f 113/1/3 107/1/3 111/1/3
f 113/3/3 111/3/3 112/3/3
f 114/1/3 107/1/3 113/1/3
f 115/3/4 116/3/4 118/3/4
f 116/1/4 117/1/4 119/1/4
f 118/3/4 116/3/4 119/3/4
f 119/1/4 117/1/4 120/1/4
f 121/3/4 122/3/4 124/3/4
f 122/1/4 123/1/4 125/1/4
f 124/3/4 122/3/4 125/3/4
f 125/1/4 123/1/4 126/1/4
f 127/3/4 128/3/4 130/3/4
f 128/1/4 129/1/4 131/1/4
f 130/3/4 128/3/4 131/3/4
f 131/1/4 129/1/4 132/1/4
f 133/3/4 134/3/4 137/3/4
f 134/4/4 135/4/4 137/4/4
f 135/1/4 136/1/4 138/1/4
f 137/4/4 135/4/4 138/4/4
f 137/3/4 138/3/4 139/3/4
f 138/1/4 136/1/4 139/1/4
f 139/1/4 136/1/4 140/1/4
f 133/3/4 137/3/4 141/3/4
f 137/3/4 139/3/4 141/3/4
f 139/3/4 140/3/4 141/3/4
f 140/1/4 136/1/4 142/1/4
f 141/3/4 140/3/4 142/3/4
f 142/1/4 136/1/4 143/1/4
f 144/3/4 145/3/4 147/3/4
f 145/1/4 146/1/4 148/1/4
f 147/3/4 145/3/4 148/3/4
f 144/3/4 147/3/4 149/3/4
f 147/1/4 148/1/4 149/1/4
f 149/1/4 148/1/4 150/1/4
f 144/3/4 149/3/4 151/3/4
f 149/3/4 150/3/4 151/3/4
f 150/1/4 148/1/4 152/1/4
f 151/3/4 150/3/4 152/3/4
f 148/1/4 146/1/4 153/1/4
f 152/1/4 148/1/4 153/1/4
f 158/3/5 155/3/5 154/3/5
f 159/3/5 157/3/5 156/3/5
f 160/3/5 157/3/5 159/3/5
f 160/3/5 159/3/5 158/3/5
f 161/3/5 157/3/5 160/3/5
f 162/3/5 158/3/5 154/3/5
f 162/3/5 160/3/5 158/3/5
f 163/3/5 160/3/5 162/3/5
f 164/3/5 160/3/5 163/3/5
f 165/3/5 160/3/5 164/3/5
f 166/3/5 160/3/5 165/3/5
f 167/3/5 160/3/5 166/3/5
f 168/3/5 166/3/5 165/3/5
f 169/3/5 166/3/5 168/3/5
f 172/3/5 171/3/5 170/3/5
f 173/3/5 171/3/5 172/3/5
f 176/1/5 175/1/5 174/1/5
f 177/1/5 175/1/5 176/1/5
f 178/3/6 179/3/6 180/3/6
f 180/3/6 179/3/6 181/3/6
f 182/1/6 183/1/6 184/1/6
f 184/1/6 183/1/6 185/1/6
f 184/2/6 185/2/6 186/2/6
f 185/1/6 183/1/6 186/1/6
f 186/1/6 183/1/6 187/1/6
f 187/1/6 183/1/6 188/1/6
f 188/1/6 183/1/6 189/1/6
f 182/1/6 184/1/6 190/1/6
f 184/2/6 186/2/6 190/2/6
f 186/2/6 187/2/6 190/2/6
f 190/2/6 187/2/6 191/2/6
f 182/1/6 190/1/6 192/1/6
f 190/1/6 191/1/6 192/1/6
f 192/1/6 191/1/6 193/1/6
f 193/1/6 191/1/6 194/1/6
f 194/1/6 191/1/6 195/1/6
f 191/2/6 187/2/6 196/2/6
f 195/1/6 191/1/6 196/1/6
f 187/1/6 188/1/6 197/1/6
f 196/2/6 187/2/6 197/2/6
f 196/1/6 197/1/6 198/1/6
f 197/1/6 188/1/6 199/1/6
f 198/1/6 197/1/6 199/1/6
f 195/1/6 196/1/6 200/1/6
f 196/1/6 198/1/6 200/1/6
f 200/1/6 198/1/6 201/1/6
