# MagicaVoxel @ Ephtracy

# group
o 

# material
mtllib bird2.mtl
usemtl palette

# normals
vn -1 0 0
vn 1 0 0
vn 0 0 1
vn 0 0 -1
vn 0 -1 0
vn 0 1 0

# texcoords
vt 0.740234 0.5
vt 0.771484 0.5
vt 0.802734 0.5
vt 0.833984 0.5

# verts
v -1 0.4 0.4
v -1 0.4 0.2
v -1 0.5 0.2
v -1 0.5 0.0999999
v -1 0.6 0.0999999
v -1 0.6 -1.19209e-07
v -1 0.8 0.4
v -1 0.8 -1.19209e-07
v -0.8 0.1 0.8
v -0.8 0.1 -0.4
v -0.8 0.2 0.9
v -0.8 0.2 0.8
v -0.8 0.2 -0.4
v -0.8 0.2 -0.5
v -0.8 0.4 0.4
v -0.8 0.4 0.3
v -0.8 0.8 0.4
v -0.8 0.8 0.3
v -0.8 0.8 -0.4
v -0.8 0.8 -0.5
v -0.8 0.9 -0.2
v -0.8 0.9 -0.4
v -0.8 1.1 0.9
v -0.8 1.1 0.8
v -0.8 1.1 -0.1
v -0.8 1.1 -0.2
v -0.8 1.2 0.8
v -0.8 1.2 -0.1
v -0.7 0 0.5
v -0.7 0 -0.3
v -0.7 0.1 0.9
v -0.7 0.1 0.8
v -0.7 0.1 0.5
v -0.7 0.1 -0.3
v -0.7 0.1 -0.4
v -0.7 0.1 -0.5
v -0.7 0.2 0.9
v -0.7 0.2 0.8
v -0.7 0.2 -0.4
v -0.7 0.2 -0.5
v -0.7 0.2 -0.6
v -0.7 0.8 -0.4
v -0.7 0.8 -0.5
v -0.7 0.8 -0.6
v -0.7 0.9 -0.4
v -0.7 0.9 -0.5
v -0.7 1.1 0.9
v -0.7 1.1 0.8
v -0.7 1.1 -0.1
v -0.7 1.1 -0.2
v -0.7 1.2 0.9
v -0.7 1.2 0.8
v -0.7 1.2 -0.1
v -0.7 1.2 -0.2
v -0.7 1.3 0.8
v -0.7 1.3 -0.1
v -0.6 0 0.6
v -0.6 0 0.5
v -0.6 0 -0.3
v -0.6 0 -0.4
v -0.6 0.1 0.6
v -0.6 0.1 0.5
v -0.6 0.1 -0.3
v -0.6 0.1 -0.4
v -0.6 0.1 -0.5
v -0.6 0.1 -0.6
v -0.6 0.2 -0.5
v -0.6 0.2 -0.6
v -0.6 0.8 -0.5
v -0.6 0.8 -0.6
v -0.6 0.9 -0.5
v -0.6 0.9 -0.6
v -0.5 1.2 -0.1
v -0.5 1.2 -0.2
v -0.5 1.3 -0.1
v -0.5 1.3 -0.2
v -0.4 0.7 1
v -0.4 0.7 0.9
v -0.4 0.9 1
v -0.4 0.9 0.9
v -0.3 0.6 -0.6
v -0.3 0.6 -0.7
v -0.3 0.8 -0.6
v -0.3 0.8 -0.7
v -0.2 0.3 1.1
v -0.2 0.3 0.9
v -0.2 0.4 1.2
v -0.2 0.4 1.1
v -0.2 0.5 1.2
v -0.2 0.5 0.9
v -0.2 0.6 -0.7
v -0.2 0.6 -0.8
v -0.2 0.7 -0.8
v -0.2 0.7 -0.9
v -0.2 0.8 -0.7
v -0.2 0.8 -0.8
v -0.2 0.8 -0.9
v -0.2 0.8 -1
v -0.2 0.9 -0.8
v -0.2 0.9 -1
v -0.0999999 0.9 -0.9
v -0.0999999 0.9 -1
v -0.0999999 1 -0.9
v -0.0999999 1 -1
v 0.2 0.7 1
v 0.2 0.7 0.9
v 0.2 0.9 1
v 0.2 0.9 0.9
v 0.9 0.4 0.3
v 0.9 0.4 0.2
v 0.9 0.5 0.2
v 0.9 0.5 0.0999999
v 0.9 0.6 0.0999999
v 0.9 0.6 -1.19209e-07
v 0.9 0.8 0.3
v 0.9 0.8 -1.19209e-07
v -0.9 0.4 0.3
v -0.9 0.4 0.2
v -0.9 0.5 0.2
v -0.9 0.5 0.0999999
v -0.9 0.6 0.0999999
v -0.9 0.6 -1.19209e-07
v -0.9 0.8 0.3
v -0.9 0.8 -1.19209e-07
v -0.2 0.7 1
v -0.2 0.7 0.9
v -0.2 0.9 1
v -0.2 0.9 0.9
v 0.1 0.9 -0.9
v 0.1 0.9 -1
v 0.1 1 -0.9
v 0.1 1 -1
v 0.2 0.3 1.1
v 0.2 0.3 0.9
v 0.2 0.4 1.2
v 0.2 0.4 1.1
v 0.2 0.5 1.2
v 0.2 0.5 0.9
v 0.2 0.6 -0.7
v 0.2 0.6 -0.8
v 0.2 0.7 -0.8
v 0.2 0.7 -0.9
v 0.2 0.8 -0.7
v 0.2 0.8 -0.8
v 0.2 0.8 -0.9
v 0.2 0.8 -1
v 0.2 0.9 -0.8
v 0.2 0.9 -1
v 0.3 0.6 -0.6
v 0.3 0.6 -0.7
v 0.3 0.8 -0.6
v 0.3 0.8 -0.7
v 0.4 0.7 1
v 0.4 0.7 0.9
v 0.4 0.9 1
v 0.4 0.9 0.9
v 0.5 1.2 -0.1
v 0.5 1.2 -0.2
v 0.5 1.3 -0.1
v 0.5 1.3 -0.2
v 0.6 0 0.6
v 0.6 0 0.5
v 0.6 0 -0.3
v 0.6 0 -0.4
v 0.6 0.1 0.6
v 0.6 0.1 0.5
v 0.6 0.1 -0.3
v 0.6 0.1 -0.4
v 0.6 0.1 -0.5
v 0.6 0.1 -0.6
v 0.6 0.2 -0.5
v 0.6 0.2 -0.6
v 0.6 0.8 -0.5
v 0.6 0.8 -0.6
v 0.6 0.9 -0.5
v 0.6 0.9 -0.6
v 0.7 0 0.5
v 0.7 0 -0.3
v 0.7 0.1 0.9
v 0.7 0.1 0.8
v 0.7 0.1 0.5
v 0.7 0.1 -0.3
v 0.7 0.1 -0.4
v 0.7 0.1 -0.5
v 0.7 0.2 0.9
v 0.7 0.2 0.8
v 0.7 0.2 -0.4
v 0.7 0.2 -0.5
v 0.7 0.2 -0.6
v 0.7 0.8 -0.4
v 0.7 0.8 -0.5
v 0.7 0.8 -0.6
v 0.7 0.9 -0.4
v 0.7 0.9 -0.5
v 0.7 1.1 0.9
v 0.7 1.1 0.8
v 0.7 1.1 -0.1
v 0.7 1.1 -0.2
v 0.7 1.2 0.9
v 0.7 1.2 0.8
v 0.7 1.2 -0.1
v 0.7 1.2 -0.2
v 0.7 1.3 0.8
v 0.7 1.3 -0.1
v 0.8 0.1 0.8
v 0.8 0.1 -0.4
v 0.8 0.2 0.9
v 0.8 0.2 0.8
v 0.8 0.2 -0.4
v 0.8 0.2 -0.5
v 0.8 0.4 0.4
v 0.8 0.4 0.3
v 0.8 0.8 0.4
v 0.8 0.8 0.3
v 0.8 0.8 -0.4
v 0.8 0.8 -0.5
v 0.8 0.9 -0.2
v 0.8 0.9 -0.4
v 0.8 1.1 0.9
v 0.8 1.1 0.8
v 0.8 1.1 -0.1
v 0.8 1.1 -0.2
v 0.8 1.2 0.8
v 0.8 1.2 -0.1
v 1 0.4 0.4
v 1 0.4 0.2
v 1 0.5 0.2
v 1 0.5 0.0999999
v 1 0.6 0.0999999
v 1 0.6 -1.19209e-07
v 1 0.8 0.4
v 1 0.8 -1.19209e-07
v -0.2 0.4 1.2
v -0.2 0.5 1.2
v 0.2 0.4 1.2
v 0.2 0.5 1.2
v -0.2 0.3 1.1
v -0.2 0.4 1.1
v 0.2 0.3 1.1
v 0.2 0.4 1.1
v -0.4 0.7 1
v -0.4 0.9 1
v -0.2 0.7 1
v -0.2 0.9 1
v 0.2 0.7 1
v 0.2 0.9 1
v 0.4 0.7 1
v 0.4 0.9 1
v -0.8 0.2 0.9
v -0.8 1.1 0.9
v -0.7 0.1 0.9
v -0.7 0.2 0.9
v -0.7 1.1 0.9
v -0.7 1.2 0.9
v -0.4 0.7 0.9
v -0.4 0.9 0.9
v -0.2 0.3 0.9
v -0.2 0.5 0.9
v -0.2 0.7 0.9
v -0.2 0.9 0.9
v 0.2 0.3 0.9
v 0.2 0.5 0.9
v 0.2 0.7 0.9
v 0.2 0.9 0.9
v 0.4 0.7 0.9
v 0.4 0.9 0.9
v 0.7 0.1 0.9
v 0.7 0.2 0.9
v 0.7 1.1 0.9
v 0.7 1.2 0.9
v 0.8 0.2 0.9
v 0.8 1.1 0.9
v -0.8 0.1 0.8
v -0.8 0.2 0.8
v -0.8 1.1 0.8
v -0.8 1.2 0.8
v -0.7 0.1 0.8
v -0.7 0.2 0.8
v -0.7 1.1 0.8
v -0.7 1.2 0.8
v -0.7 1.3 0.8
v 0.7 0.1 0.8
v 0.7 0.2 0.8
v 0.7 1.1 0.8
v 0.7 1.2 0.8
v 0.7 1.3 0.8
v 0.8 0.1 0.8
v 0.8 0.2 0.8
v 0.8 1.1 0.8
v 0.8 1.2 0.8
v -0.6 0 0.6
v -0.6 0.1 0.6
v 0.6 0 0.6
v 0.6 0.1 0.6
v -0.7 0 0.5
v -0.7 0.1 0.5
v -0.6 0 0.5
v -0.6 0.1 0.5
v 0.6 0 0.5
v 0.6 0.1 0.5
v 0.7 0 0.5
v 0.7 0.1 0.5
v -1 0.4 0.4
v -1 0.8 0.4
v -0.8 0.4 0.4
v -0.8 0.8 0.4
v 0.8 0.4 0.4
v 0.8 0.8 0.4
v 1 0.4 0.4
v 1 0.8 0.4
v -0.2 0.8 -0.8
v -0.2 0.9 -0.8
v 0.2 0.8 -0.8
v 0.2 0.9 -0.8
v -0.0999999 0.9 -0.9
v -0.0999999 1 -0.9
v 0.1 0.9 -0.9
v 0.1 1 -0.9
v -0.9 0.4 0.3
v -0.9 0.8 0.3
v -0.8 0.4 0.3
v -0.8 0.8 0.3
v 0.8 0.4 0.3
v 0.8 0.8 0.3
v 0.9 0.4 0.3
v 0.9 0.8 0.3
v -1 0.4 0.2
v -1 0.5 0.2
v -0.9 0.4 0.2
v -0.9 0.5 0.2
v 0.9 0.4 0.2
v 0.9 0.5 0.2
v 1 0.4 0.2
v 1 0.5 0.2
v -1 0.5 0.0999999
v -1 0.6 0.0999999
v -0.9 0.5 0.0999999
v -0.9 0.6 0.0999999
v 0.9 0.5 0.0999999
v 0.9 0.6 0.0999999
v 1 0.5 0.0999999
v 1 0.6 0.0999999
v -1 0.6 -1.19209e-07
v -1 0.8 -1.19209e-07
v -0.9 0.6 -1.19209e-07
v -0.9 0.8 -1.19209e-07
v 0.9 0.6 -1.19209e-07
v 0.9 0.8 -1.19209e-07
v 1 0.6 -1.19209e-07
v 1 0.8 -1.19209e-07
v -0.8 1.1 -0.1
v -0.8 1.2 -0.1
v -0.7 1.1 -0.1
v -0.7 1.2 -0.1
v -0.7 1.3 -0.1
v -0.5 1.2 -0.1
v -0.5 1.3 -0.1
v 0.5 1.2 -0.1
v 0.5 1.3 -0.1
v 0.7 1.1 -0.1
v 0.7 1.2 -0.1
v 0.7 1.3 -0.1
v 0.8 1.1 -0.1
v 0.8 1.2 -0.1
v -0.8 0.9 -0.2
v -0.8 1.1 -0.2
v -0.7 1.1 -0.2
v -0.7 1.2 -0.2
v -0.5 1.2 -0.2
v -0.5 1.3 -0.2
v 0.5 1.2 -0.2
v 0.5 1.3 -0.2
v 0.7 1.1 -0.2
v 0.7 1.2 -0.2
v 0.8 0.9 -0.2
v 0.8 1.1 -0.2
v -0.7 0 -0.3
v -0.7 0.1 -0.3
v -0.6 0 -0.3
v -0.6 0.1 -0.3
v 0.6 0 -0.3
v 0.6 0.1 -0.3
v 0.7 0 -0.3
v 0.7 0.1 -0.3
v -0.8 0.1 -0.4
v -0.8 0.2 -0.4
v -0.8 0.8 -0.4
v -0.8 0.9 -0.4
v -0.7 0.1 -0.4
v -0.7 0.2 -0.4
v -0.7 0.8 -0.4
v -0.7 0.9 -0.4
v -0.6 0 -0.4
v -0.6 0.1 -0.4
v 0.6 0 -0.4
v 0.6 0.1 -0.4
v 0.7 0.1 -0.4
v 0.7 0.2 -0.4
v 0.7 0.8 -0.4
v 0.7 0.9 -0.4
v 0.8 0.1 -0.4
v 0.8 0.2 -0.4
v 0.8 0.8 -0.4
v 0.8 0.9 -0.4
v -0.8 0.2 -0.5
v -0.8 0.8 -0.5
v -0.7 0.1 -0.5
v -0.7 0.2 -0.5
v -0.7 0.8 -0.5
v -0.7 0.9 -0.5
v -0.6 0.1 -0.5
v -0.6 0.2 -0.5
v -0.6 0.8 -0.5
v -0.6 0.9 -0.5
v 0.6 0.1 -0.5
v 0.6 0.2 -0.5
v 0.6 0.8 -0.5
v 0.6 0.9 -0.5
v 0.7 0.1 -0.5
v 0.7 0.2 -0.5
v 0.7 0.8 -0.5
v 0.7 0.9 -0.5
v 0.8 0.2 -0.5
v 0.8 0.8 -0.5
v -0.7 0.2 -0.6
v -0.7 0.8 -0.6
v -0.6 0.1 -0.6
v -0.6 0.2 -0.6
v -0.6 0.8 -0.6
v -0.6 0.9 -0.6
v -0.3 0.6 -0.6
v -0.3 0.8 -0.6
v 0.3 0.6 -0.6
v 0.3 0.8 -0.6
v 0.6 0.1 -0.6
v 0.6 0.2 -0.6
v 0.6 0.8 -0.6
v 0.6 0.9 -0.6
v 0.7 0.2 -0.6
v 0.7 0.8 -0.6
v -0.3 0.6 -0.7
v -0.3 0.8 -0.7
v -0.2 0.6 -0.7
v -0.2 0.8 -0.7
v 0.2 0.6 -0.7
v 0.2 0.8 -0.7
v 0.3 0.6 -0.7
v 0.3 0.8 -0.7
v -0.2 0.6 -0.8
v -0.2 0.7 -0.8
v 0.2 0.6 -0.8
v 0.2 0.7 -0.8
v -0.2 0.7 -0.9
v -0.2 0.8 -0.9
v 0.2 0.7 -0.9
v 0.2 0.8 -0.9
v -0.2 0.8 -1
v -0.2 0.9 -1
v -0.0999999 0.9 -1
v -0.0999999 1 -1
v 0.1 0.9 -1
v 0.1 1 -1
v 0.2 0.8 -1
v 0.2 0.9 -1
v -0.6 0 0.6
v 0.6 0 0.6
v -0.7 0 0.5
v -0.6 0 0.5
v 0.6 0 0.5
v 0.7 0 0.5
v -0.7 0 -0.3
v -0.6 0 -0.3
v 0.6 0 -0.3
v 0.7 0 -0.3
v -0.6 0 -0.4
v 0.6 0 -0.4
v -0.7 0.1 0.9
v 0.7 0.1 0.9
v -0.8 0.1 0.8
v -0.7 0.1 0.8
v 0.7 0.1 0.8
v 0.8 0.1 0.8
v -0.6 0.1 0.6
v 0.6 0.1 0.6
v -0.7 0.1 0.5
v -0.6 0.1 0.5
v 0.6 0.1 0.5
v 0.7 0.1 0.5
v -0.7 0.1 -0.3
v -0.6 0.1 -0.3
v 0.6 0.1 -0.3
v 0.7 0.1 -0.3
v -0.8 0.1 -0.4
v -0.7 0.1 -0.4
v -0.6 0.1 -0.4
v 0.6 0.1 -0.4
v 0.7 0.1 -0.4
v 0.8 0.1 -0.4
v -0.7 0.1 -0.5
v -0.6 0.1 -0.5
v 0.6 0.1 -0.5
v 0.7 0.1 -0.5
v -0.6 0.1 -0.6
v 0.6 0.1 -0.6
v -0.8 0.2 0.9
v -0.7 0.2 0.9
v 0.7 0.2 0.9
v 0.8 0.2 0.9
v -0.8 0.2 0.8
v -0.7 0.2 0.8
v 0.7 0.2 0.8
v 0.8 0.2 0.8
v -0.8 0.2 -0.4
v -0.7 0.2 -0.4
v 0.7 0.2 -0.4
v 0.8 0.2 -0.4
v -0.8 0.2 -0.5
v -0.7 0.2 -0.5
v -0.6 0.2 -0.5
v 0.6 0.2 -0.5
v 0.7 0.2 -0.5
v 0.8 0.2 -0.5
v -0.7 0.2 -0.6
v -0.6 0.2 -0.6
v 0.6 0.2 -0.6
v 0.7 0.2 -0.6
v -0.2 0.3 1.1
v 0.2 0.3 1.1
v -0.2 0.3 0.9
v 0.2 0.3 0.9
v -0.2 0.4 1.2
v 0.2 0.4 1.2
v -0.2 0.4 1.1
v 0.2 0.4 1.1
v -1 0.4 0.4
v -0.8 0.4 0.4
v 0.8 0.4 0.4
v 1 0.4 0.4
v -0.9 0.4 0.3
v -0.8 0.4 0.3
v 0.8 0.4 0.3
v 0.9 0.4 0.3
v -1 0.4 0.2
v -0.9 0.4 0.2
v 0.9 0.4 0.2
v 1 0.4 0.2
v -1 0.5 0.2
v -0.9 0.5 0.2
v 0.9 0.5 0.2
v 1 0.5 0.2
v -1 0.5 0.0999999
v -0.9 0.5 0.0999999
v 0.9 0.5 0.0999999
v 1 0.5 0.0999999
v -1 0.6 0.0999999
v -0.9 0.6 0.0999999
v 0.9 0.6 0.0999999
v 1 0.6 0.0999999
v -1 0.6 -1.19209e-07
v -0.9 0.6 -1.19209e-07
v 0.9 0.6 -1.19209e-07
v 1 0.6 -1.19209e-07
v -0.3 0.6 -0.6
v 0.3 0.6 -0.6
v -0.3 0.6 -0.7
v -0.2 0.6 -0.7
v 0.2 0.6 -0.7
v 0.3 0.6 -0.7
v -0.2 0.6 -0.8
v 0.2 0.6 -0.8
v -0.4 0.7 1
v -0.2 0.7 1
v 0.2 0.7 1
v 0.4 0.7 1
v -0.4 0.7 0.9
v -0.2 0.7 0.9
v 0.2 0.7 0.9
v 0.4 0.7 0.9
v -0.2 0.7 -0.8
v 0.2 0.7 -0.8
v -0.2 0.7 -0.9
v 0.2 0.7 -0.9
v -0.2 0.8 -0.9
v 0.2 0.8 -0.9
v -0.2 0.8 -1
v 0.2 0.8 -1
v -0.2 0.5 1.2
v 0.2 0.5 1.2
v -0.2 0.5 0.9
v 0.2 0.5 0.9
v -1 0.8 0.4
v -0.8 0.8 0.4
v 0.8 0.8 0.4
v 1 0.8 0.4
v -0.9 0.8 0.3
v -0.8 0.8 0.3
v 0.8 0.8 0.3
v 0.9 0.8 0.3
v -1 0.8 -1.19209e-07
v -0.9 0.8 -1.19209e-07
v 0.9 0.8 -1.19209e-07
v 1 0.8 -1.19209e-07
v -0.8 0.8 -0.4
v -0.7 0.8 -0.4
v 0.7 0.8 -0.4
v 0.8 0.8 -0.4
v -0.8 0.8 -0.5
v -0.7 0.8 -0.5
v -0.6 0.8 -0.5
v 0.6 0.8 -0.5
v 0.7 0.8 -0.5
v 0.8 0.8 -0.5
v -0.7 0.8 -0.6
v -0.6 0.8 -0.6
v -0.3 0.8 -0.6
v 0.3 0.8 -0.6
v 0.6 0.8 -0.6
v 0.7 0.8 -0.6
v -0.3 0.8 -0.7
v -0.2 0.8 -0.7
v 0.2 0.8 -0.7
v 0.3 0.8 -0.7
v -0.2 0.8 -0.8
v 0.2 0.8 -0.8
v -0.4 0.9 1
v -0.2 0.9 1
v 0.2 0.9 1
v 0.4 0.9 1
v -0.4 0.9 0.9
v -0.2 0.9 0.9
v 0.2 0.9 0.9
v 0.4 0.9 0.9
v -0.8 0.9 -0.2
v 0.8 0.9 -0.2
v -0.8 0.9 -0.4
v -0.7 0.9 -0.4
v 0.7 0.9 -0.4
v 0.8 0.9 -0.4
v -0.7 0.9 -0.5
v -0.6 0.9 -0.5
v 0.6 0.9 -0.5
v 0.7 0.9 -0.5
v -0.6 0.9 -0.6
v 0.6 0.9 -0.6
v -0.2 0.9 -0.8
v 0.2 0.9 -0.8
v -0.0999999 0.9 -0.9
v 0.1 0.9 -0.9
v -0.2 0.9 -1
v -0.0999999 0.9 -1
v 0.1 0.9 -1
v 0.2 0.9 -1
v -0.0999999 1 -0.9
v 0.1 1 -0.9
v -0.0999999 1 -1
v 0.1 1 -1
v -0.8 1.1 0.9
v -0.7 1.1 0.9
v 0.7 1.1 0.9
v 0.8 1.1 0.9
v -0.8 1.1 0.8
v -0.7 1.1 0.8
v 0.7 1.1 0.8
v 0.8 1.1 0.8
v -0.8 1.1 -0.1
v -0.7 1.1 -0.1
v 0.7 1.1 -0.1
v 0.8 1.1 -0.1
v -0.8 1.1 -0.2
v -0.7 1.1 -0.2
v 0.7 1.1 -0.2
v 0.8 1.1 -0.2
v -0.7 1.2 0.9
v 0.7 1.2 0.9
v -0.8 1.2 0.8
v -0.7 1.2 0.8
v 0.7 1.2 0.8
v 0.8 1.2 0.8
v -0.8 1.2 -0.1
v -0.7 1.2 -0.1
v -0.5 1.2 -0.1
v 0.5 1.2 -0.1
v 0.7 1.2 -0.1
v 0.8 1.2 -0.1
v -0.7 1.2 -0.2
v -0.5 1.2 -0.2
v 0.5 1.2 -0.2
v 0.7 1.2 -0.2
v -0.7 1.3 0.8
v 0.7 1.3 0.8
v -0.7 1.3 -0.1
v -0.5 1.3 -0.1
v 0.5 1.3 -0.1
v 0.7 1.3 -0.1
v -0.5 1.3 -0.2
v 0.5 1.3 -0.2

# faces
f 3/1/1 2/1/1 1/1/1
f 5/1/1 4/1/1 3/1/1
f 7/1/1 3/1/1 1/1/1
f 7/1/1 6/1/1 5/1/1
f 7/1/1 5/1/1 3/1/1
f 8/1/1 6/1/1 7/1/1
f 12/4/1 10/4/1 9/4/1
f 13/4/1 10/4/1 12/4/1
f 15/4/1 12/4/1 11/4/1
f 15/4/1 14/4/1 13/4/1
f 15/4/1 13/4/1 12/4/1
f 16/4/1 14/4/1 15/4/1
f 17/4/1 15/4/1 11/4/1
f 18/4/1 14/4/1 16/4/1
f 19/4/1 14/4/1 18/4/1
f 20/4/1 14/4/1 19/4/1
f 21/4/1 18/4/1 17/4/1
f 21/4/1 19/4/1 18/4/1
f 22/4/1 19/4/1 21/4/1
f 23/4/1 17/4/1 11/4/1
f 23/4/1 21/4/1 17/4/1
f 24/4/1 21/4/1 23/4/1
f 25/4/1 21/4/1 24/4/1
f 26/4/1 21/4/1 25/4/1
f 27/4/1 25/4/1 24/4/1
f 28/4/1 25/4/1 27/4/1
f 33/4/1 30/4/1 29/4/1
f 34/4/1 30/4/1 33/4/1
f 37/4/1 32/4/1 31/4/1
f 38/4/1 32/4/1 37/4/1
f 39/4/1 36/4/1 35/4/1
f 40/4/1 36/4/1 39/4/1
f 43/4/1 41/4/1 40/4/1
f 44/4/1 41/4/1 43/4/1
f 45/4/1 43/4/1 42/4/1
f 46/4/1 43/4/1 45/4/1
f 51/4/1 48/4/1 47/4/1
f 52/4/1 48/4/1 51/4/1
f 53/4/1 50/4/1 49/4/1
f 54/4/1 50/4/1 53/4/1
f 55/4/1 53/4/1 52/4/1
f 56/4/1 53/4/1 55/4/1
f 61/4/1 58/4/1 57/4/1
f 62/4/1 58/4/1 61/4/1
f 63/4/1 60/4/1 59/4/1
f 64/4/1 60/4/1 63/4/1
f 67/4/1 66/4/1 65/4/1
f 68/4/1 66/4/1 67/4/1
f 71/4/1 70/4/1 69/4/1
f 72/4/1 70/4/1 71/4/1
f 75/4/1 74/4/1 73/4/1
f 76/4/1 74/4/1 75/4/1
f 79/3/1 78/3/1 77/3/1
f 80/3/1 78/3/1 79/3/1
f 83/1/1 82/1/1 81/1/1
f 84/1/1 82/1/1 83/1/1
f 88/2/1 86/2/1 85/2/1
f 89/2/1 88/2/1 87/2/1
f 90/2/1 86/2/1 88/2/1
f 90/2/1 88/2/1 89/2/1
f 93/1/1 92/1/1 91/1/1
f 95/1/1 93/1/1 91/1/1
f 95/1/1 94/1/1 93/1/1
f 96/1/1 94/1/1 95/1/1
f 97/1/1 94/1/1 96/1/1
f 99/1/1 98/1/1 97/1/1
f 99/1/1 97/1/1 96/1/1
f 100/1/1 98/1/1 99/1/1
f 103/1/1 102/1/1 101/1/1
f 104/1/1 102/1/1 103/1/1
f 107/3/1 106/3/1 105/3/1
f 108/3/1 106/3/1 107/3/1
f 111/1/1 110/1/1 109/1/1
f 113/1/1 112/1/1 111/1/1
f 115/1/1 111/1/1 109/1/1
f 115/1/1 114/1/1 113/1/1
f 115/1/1 113/1/1 111/1/1
f 116/1/1 114/1/1 115/1/1
f 117/1/2 118/1/2 119/1/2
f 119/1/2 120/1/2 121/1/2
f 117/1/2 119/1/2 123/1/2
f 121/1/2 122/1/2 123/1/2
f 119/1/2 121/1/2 123/1/2
f 123/1/2 122/1/2 124/1/2
f 125/3/2 126/3/2 127/3/2
f 127/3/2 126/3/2 128/3/2
f 129/1/2 130/1/2 131/1/2
f 131/1/2 130/1/2 132/1/2
f 133/2/2 134/2/2 136/2/2
f 135/2/2 136/2/2 137/2/2
f 136/2/2 134/2/2 138/2/2
f 137/2/2 136/2/2 138/2/2
f 139/1/2 140/1/2 141/1/2
f 139/1/2 141/1/2 143/1/2
f 141/1/2 142/1/2 143/1/2
f 143/1/2 142/1/2 144/1/2
f 144/1/2 142/1/2 145/1/2
f 145/1/2 146/1/2 147/1/2
f 144/1/2 145/1/2 147/1/2
f 147/1/2 146/1/2 148/1/2
f 149/1/2 150/1/2 151/1/2
f 151/1/2 150/1/2 152/1/2
f 153/3/2 154/3/2 155/3/2
f 155/3/2 154/3/2 156/3/2
f 157/4/2 158/4/2 159/4/2
f 159/4/2 158/4/2 160/4/2
f 161/4/2 162/4/2 165/4/2
f 165/4/2 162/4/2 166/4/2
f 163/4/2 164/4/2 167/4/2
f 167/4/2 164/4/2 168/4/2
f 169/4/2 170/4/2 171/4/2
f 171/4/2 170/4/2 172/4/2
f 173/4/2 174/4/2 175/4/2
f 175/4/2 174/4/2 176/4/2
f 177/4/2 178/4/2 181/4/2
f 181/4/2 178/4/2 182/4/2
f 179/4/2 180/4/2 185/4/2
f 185/4/2 180/4/2 186/4/2
f 183/4/2 184/4/2 187/4/2
f 187/4/2 184/4/2 188/4/2
f 188/4/2 189/4/2 191/4/2
f 191/4/2 189/4/2 192/4/2
f 190/4/2 191/4/2 193/4/2
f 193/4/2 191/4/2 194/4/2
f 195/4/2 196/4/2 199/4/2
f 199/4/2 196/4/2 200/4/2
f 197/4/2 198/4/2 201/4/2
f 201/4/2 198/4/2 202/4/2
f 200/4/2 201/4/2 203/4/2
f 203/4/2 201/4/2 204/4/2
f 205/4/2 206/4/2 208/4/2
f 208/4/2 206/4/2 209/4/2
f 207/4/2 208/4/2 211/4/2
f 209/4/2 210/4/2 211/4/2
f 208/4/2 209/4/2 211/4/2
f 211/4/2 210/4/2 212/4/2
f 207/4/2 211/4/2 213/4/2
f 212/4/2 210/4/2 214/4/2
f 214/4/2 210/4/2 215/4/2
f 215/4/2 210/4/2 216/4/2
f 213/4/2 214/4/2 217/4/2
f 214/4/2 215/4/2 217/4/2
f 217/4/2 215/4/2 218/4/2
f 207/4/2 213/4/2 219/4/2
f 213/4/2 217/4/2 219/4/2
f 219/4/2 217/4/2 220/4/2
f 220/4/2 217/4/2 221/4/2
f 221/4/2 217/4/2 222/4/2
f 220/4/2 221/4/2 223/4/2
f 223/4/2 221/4/2 224/4/2
f 225/1/2 226/1/2 227/1/2
f 227/1/2 228/1/2 229/1/2
f 225/1/2 227/1/2 231/1/2
f 229/1/2 230/1/2 231/1/2
f 227/1/2 229/1/2 231/1/2
f 231/1/2 230/1/2 232/1/2
f 235/2/3 234/2/3 233/2/3
f 236/2/3 234/2/3 235/2/3
f 239/2/3 238/2/3 237/2/3
f 240/2/3 238/2/3 239/2/3
f 243/3/3 242/3/3 241/3/3
f 244/3/3 242/3/3 243/3/3
f 247/3/3 246/3/3 245/3/3
f 248/3/3 246/3/3 247/3/3
f 252/4/3 250/4/3 249/4/3
f 253/4/3 250/4/3 252/4/3
f 255/4/3 252/4/3 251/4/3
f 255/4/3 254/4/3 253/4/3
f 255/4/3 253/4/3 252/4/3
f 256/4/3 254/4/3 255/4/3
f 257/4/3 255/4/3 251/4/3
f 258/4/3 255/4/3 257/4/3
f 259/4/3 255/4/3 258/4/3
f 260/4/3 254/4/3 256/4/3
f 261/4/3 257/4/3 251/4/3
f 262/4/3 259/4/3 258/4/3
f 262/4/3 260/4/3 259/4/3
f 263/4/3 260/4/3 262/4/3
f 264/4/3 254/4/3 260/4/3
f 264/4/3 260/4/3 263/4/3
f 265/4/3 263/4/3 262/4/3
f 265/4/3 262/4/3 261/4/3
f 266/4/3 254/4/3 264/4/3
f 267/4/3 261/4/3 251/4/3
f 267/4/3 266/4/3 265/4/3
f 267/4/3 265/4/3 261/4/3
f 268/4/3 266/4/3 267/4/3
f 269/4/3 254/4/3 266/4/3
f 269/4/3 266/4/3 268/4/3
f 270/4/3 254/4/3 269/4/3
f 271/4/3 269/4/3 268/4/3
f 272/4/3 269/4/3 271/4/3
f 277/4/3 274/4/3 273/4/3
f 278/4/3 274/4/3 277/4/3
f 279/4/3 276/4/3 275/4/3
f 280/4/3 276/4/3 279/4/3
f 285/4/3 281/4/3 280/4/3
f 286/4/3 281/4/3 285/4/3
f 287/4/3 283/4/3 282/4/3
f 288/4/3 283/4/3 287/4/3
f 289/4/3 285/4/3 284/4/3
f 290/4/3 285/4/3 289/4/3
f 293/4/3 292/4/3 291/4/3
f 294/4/3 292/4/3 293/4/3
f 297/4/3 296/4/3 295/4/3
f 298/4/3 296/4/3 297/4/3
f 301/4/3 300/4/3 299/4/3
f 302/4/3 300/4/3 301/4/3
f 305/1/3 304/1/3 303/1/3
f 306/1/3 304/1/3 305/1/3
f 309/1/3 308/1/3 307/1/3
f 310/1/3 308/1/3 309/1/3
f 313/1/3 312/1/3 311/1/3
f 314/1/3 312/1/3 313/1/3
f 317/1/3 316/1/3 315/1/3
f 318/1/3 316/1/3 317/1/3
f 319/1/4 320/1/4 321/1/4
f 321/1/4 320/1/4 322/1/4
f 323/1/4 324/1/4 325/1/4
f 325/1/4 324/1/4 326/1/4
f 327/1/4 328/1/4 329/1/4
f 329/1/4 328/1/4 330/1/4
f 331/1/4 332/1/4 333/1/4
f 333/1/4 332/1/4 334/1/4
f 335/1/4 336/1/4 337/1/4
f 337/1/4 336/1/4 338/1/4
f 339/1/4 340/1/4 341/1/4
f 341/1/4 340/1/4 342/1/4
f 343/1/4 344/1/4 345/1/4
f 345/1/4 344/1/4 346/1/4
f 347/1/4 348/1/4 349/1/4
f 349/1/4 348/1/4 350/1/4
f 351/4/4 352/4/4 353/4/4
f 353/4/4 352/4/4 354/4/4
f 354/4/4 355/4/4 356/4/4
f 356/4/4 355/4/4 357/4/4
f 358/4/4 359/4/4 361/4/4
f 361/4/4 359/4/4 362/4/4
f 360/4/4 361/4/4 363/4/4
f 363/4/4 361/4/4 364/4/4
f 365/4/4 366/4/4 367/4/4
f 367/4/4 368/4/4 369/4/4
f 367/4/4 369/4/4 371/4/4
f 369/4/4 370/4/4 371/4/4
f 371/4/4 370/4/4 372/4/4
f 365/4/4 367/4/4 373/4/4
f 367/4/4 371/4/4 373/4/4
f 373/4/4 371/4/4 374/4/4
f 365/4/4 373/4/4 375/4/4
f 375/4/4 373/4/4 376/4/4
f 377/4/4 378/4/4 379/4/4
f 379/4/4 378/4/4 380/4/4
f 381/4/4 382/4/4 383/4/4
f 383/4/4 382/4/4 384/4/4
f 385/4/4 386/4/4 389/4/4
f 389/4/4 386/4/4 390/4/4
f 387/4/4 388/4/4 391/4/4
f 391/4/4 388/4/4 392/4/4
f 393/4/4 394/4/4 395/4/4
f 395/4/4 394/4/4 396/4/4
f 397/4/4 398/4/4 401/4/4
f 401/4/4 398/4/4 402/4/4
f 399/4/4 400/4/4 403/4/4
f 403/4/4 400/4/4 404/4/4
f 405/4/4 406/4/4 408/4/4
f 408/4/4 406/4/4 409/4/4
f 407/4/4 408/4/4 411/4/4
f 411/4/4 408/4/4 412/4/4
f 409/4/4 410/4/4 413/4/4
f 413/4/4 410/4/4 414/4/4
f 415/4/4 416/4/4 419/4/4
f 419/4/4 416/4/4 420/4/4
f 417/4/4 418/4/4 421/4/4
f 421/4/4 418/4/4 422/4/4
f 420/4/4 421/4/4 423/4/4
f 423/4/4 421/4/4 424/4/4
f 425/4/4 426/4/4 428/4/4
f 428/4/4 426/4/4 429/4/4
f 427/4/4 428/4/4 431/4/4
f 429/4/4 430/4/4 431/4/4
f 428/4/4 429/4/4 431/4/4
f 431/4/4 430/4/4 432/4/4
f 427/4/4 431/4/4 433/4/4
f 432/4/4 430/4/4 434/4/4
f 427/4/4 433/4/4 435/4/4
f 433/4/4 434/4/4 435/4/4
f 435/4/4 434/4/4 436/4/4
f 434/4/4 430/4/4 437/4/4
f 436/4/4 434/4/4 437/4/4
f 437/4/4 430/4/4 438/4/4
f 436/4/4 437/4/4 439/4/4
f 439/4/4 437/4/4 440/4/4
f 441/1/4 442/1/4 443/1/4
f 443/1/4 442/1/4 444/1/4
f 445/1/4 446/1/4 447/1/4
f 447/1/4 446/1/4 448/1/4
f 449/1/4 450/1/4 451/1/4
f 451/1/4 450/1/4 452/1/4
f 453/1/4 454/1/4 455/1/4
f 455/1/4 454/1/4 456/1/4
f 457/1/4 458/1/4 459/1/4
f 457/1/4 459/1/4 461/1/4
f 459/1/4 460/1/4 461/1/4
f 461/1/4 460/1/4 462/1/4
f 457/1/4 461/1/4 463/1/4
f 463/1/4 461/1/4 464/1/4
f 468/4/5 466/4/5 465/4/5
f 469/4/5 466/4/5 468/4/5
f 471/4/5 468/4/5 467/4/5
f 471/4/5 470/4/5 469/4/5
f 471/4/5 469/4/5 468/4/5
f 472/4/5 470/4/5 471/4/5
f 473/4/5 470/4/5 472/4/5
f 474/4/5 470/4/5 473/4/5
f 475/4/5 473/4/5 472/4/5
f 476/4/5 473/4/5 475/4/5
f 480/4/5 478/4/5 477/4/5
f 481/4/5 478/4/5 480/4/5
f 483/4/5 480/4/5 479/4/5
f 483/4/5 482/4/5 481/4/5
f 483/4/5 481/4/5 480/4/5
f 484/4/5 482/4/5 483/4/5
f 485/4/5 483/4/5 479/4/5
f 486/4/5 483/4/5 485/4/5
f 487/4/5 482/4/5 484/4/5
f 488/4/5 482/4/5 487/4/5
f 489/4/5 485/4/5 479/4/5
f 492/4/5 482/4/5 488/4/5
f 493/4/5 490/4/5 489/4/5
f 493/4/5 489/4/5 479/4/5
f 494/4/5 490/4/5 493/4/5
f 495/4/5 490/4/5 494/4/5
f 496/4/5 492/4/5 491/4/5
f 497/4/5 482/4/5 492/4/5
f 497/4/5 492/4/5 496/4/5
f 498/4/5 482/4/5 497/4/5
f 499/4/5 495/4/5 494/4/5
f 499/4/5 496/4/5 495/4/5
f 499/4/5 497/4/5 496/4/5
f 500/4/5 497/4/5 499/4/5
f 501/4/5 497/4/5 500/4/5
f 502/4/5 497/4/5 501/4/5
f 503/4/5 501/4/5 500/4/5
f 504/4/5 501/4/5 503/4/5
f 509/4/5 506/4/5 505/4/5
f 510/4/5 506/4/5 509/4/5
f 511/4/5 508/4/5 507/4/5
f 512/4/5 508/4/5 511/4/5
f 517/4/5 514/4/5 513/4/5
f 518/4/5 514/4/5 517/4/5
f 521/4/5 516/4/5 515/4/5
f 522/4/5 516/4/5 521/4/5
f 523/4/5 519/4/5 518/4/5
f 524/4/5 519/4/5 523/4/5
f 525/4/5 521/4/5 520/4/5
f 526/4/5 521/4/5 525/4/5
f 529/2/5 528/2/5 527/2/5
f 530/2/5 528/2/5 529/2/5
f 533/2/5 532/2/5 531/2/5
f 534/2/5 532/2/5 533/2/5
f 539/1/5 536/1/5 535/1/5
f 540/1/5 536/1/5 539/1/5
f 541/1/5 538/1/5 537/1/5
f 542/1/5 538/1/5 541/1/5
f 543/1/5 539/1/5 535/1/5
f 544/1/5 539/1/5 543/1/5
f 545/1/5 538/1/5 542/1/5
f 546/1/5 538/1/5 545/1/5
f 551/1/5 548/1/5 547/1/5
f 552/1/5 548/1/5 551/1/5
f 553/1/5 550/1/5 549/1/5
f 554/1/5 550/1/5 553/1/5
f 559/1/5 556/1/5 555/1/5
f 560/1/5 556/1/5 559/1/5
f 561/1/5 558/1/5 557/1/5
f 562/1/5 558/1/5 561/1/5
f 565/1/5 564/1/5 563/1/5
f 566/1/5 564/1/5 565/1/5
f 567/1/5 564/1/5 566/1/5
f 568/1/5 564/1/5 567/1/5
f 569/1/5 567/1/5 566/1/5
f 570/1/5 567/1/5 569/1/5
f 575/3/5 572/3/5 571/3/5
f 576/3/5 572/3/5 575/3/5
f 577/3/5 574/3/5 573/3/5
f 578/3/5 574/3/5 577/3/5
f 581/1/5 580/1/5 579/1/5
f 582/1/5 580/1/5 581/1/5
f 585/1/5 584/1/5 583/1/5
f 586/1/5 584/1/5 585/1/5
f 587/2/6 588/2/6 589/2/6
f 589/2/6 588/2/6 590/2/6
f 591/1/6 592/1/6 595/1/6
f 595/1/6 592/1/6 596/1/6
f 593/1/6 594/1/6 597/1/6
f 597/1/6 594/1/6 598/1/6
f 591/1/6 595/1/6 599/1/6
f 599/1/6 595/1/6 600/1/6
f 598/1/6 594/1/6 601/1/6
f 601/1/6 594/1/6 602/1/6
f 603/4/6 604/4/6 607/4/6
f 607/4/6 604/4/6 608/4/6
f 605/4/6 606/4/6 611/4/6
f 611/4/6 606/4/6 612/4/6
f 608/4/6 609/4/6 613/4/6
f 613/4/6 609/4/6 614/4/6
f 610/4/6 611/4/6 617/4/6
f 617/4/6 611/4/6 618/4/6
f 615/1/6 616/1/6 619/1/6
f 619/1/6 616/1/6 620/1/6
f 620/1/6 616/1/6 621/1/6
f 621/1/6 616/1/6 622/1/6
f 620/1/6 621/1/6 623/1/6
f 623/1/6 621/1/6 624/1/6
f 625/3/6 626/3/6 629/3/6
f 629/3/6 626/3/6 630/3/6
f 627/3/6 628/3/6 631/3/6
f 631/3/6 628/3/6 632/3/6
f 633/4/6 634/4/6 635/4/6
f 635/4/6 634/4/6 636/4/6
f 636/4/6 634/4/6 637/4/6
f 637/4/6 634/4/6 638/4/6
f 636/4/6 637/4/6 639/4/6
f 639/4/6 637/4/6 640/4/6
f 640/4/6 637/4/6 641/4/6
f 641/4/6 637/4/6 642/4/6
f 640/4/6 641/4/6 643/4/6
f 643/4/6 641/4/6 644/4/6
f 645/1/6 646/1/6 647/1/6
f 647/1/6 646/1/6 648/1/6
f 645/1/6 647/1/6 649/1/6
f 649/1/6 647/1/6 650/1/6
f 648/1/6 646/1/6 651/1/6
f 651/1/6 646/1/6 652/1/6
f 653/1/6 654/1/6 655/1/6
f 655/1/6 654/1/6 656/1/6
f 657/4/6 658/4/6 661/4/6
f 661/4/6 658/4/6 662/4/6
f 659/4/6 660/4/6 663/4/6
f 663/4/6 660/4/6 664/4/6
f 665/4/6 666/4/6 669/4/6
f 669/4/6 666/4/6 670/4/6
f 667/4/6 668/4/6 671/4/6
f 671/4/6 668/4/6 672/4/6
f 673/4/6 674/4/6 676/4/6
f 676/4/6 674/4/6 677/4/6
f 675/4/6 676/4/6 679/4/6
f 679/4/6 676/4/6 680/4/6
f 677/4/6 678/4/6 683/4/6
f 683/4/6 678/4/6 684/4/6
f 680/4/6 681/4/6 685/4/6
f 685/4/6 681/4/6 686/4/6
f 682/4/6 683/4/6 687/4/6
f 687/4/6 683/4/6 688/4/6
f 689/4/6 690/4/6 691/4/6
f 691/4/6 690/4/6 692/4/6
f 692/4/6 690/4/6 693/4/6
f 693/4/6 690/4/6 694/4/6
f 692/4/6 693/4/6 695/4/6
f 695/4/6 693/4/6 696/4/6
